<?xml version="1.0" standalone="no"?>
<!DOCTYPE svg PUBLIC "-//W3C//DTD SVG 20010904//EN"
 "http://www.w3.org/TR/2001/REC-SVG-20010904/DTD/svg10.dtd">
<svg version="1.0" xmlns="http://www.w3.org/2000/svg"
 width="1024.000000pt" height="1024.000000pt" viewBox="0 0 1024.000000 1024.000000"
 preserveAspectRatio="xMidYMid meet">

<g transform="translate(0.000000,1024.000000) scale(0.100000,-0.100000)"
fill="#000000" stroke="none">
<path d="M4061 8537 c-6 -18 -24 -40 -41 -50 -39 -24 -38 -35 5 -43 26 -5 43
-16 60 -42 l24 -35 11 27 c5 15 10 31 10 36 0 5 17 21 37 34 l36 25 -27 11
c-15 5 -31 10 -36 10 -5 0 -19 14 -32 30 -28 38 -34 38 -47 -3z"/>
<path d="M6500 8480 c0 -13 7 -20 20 -20 13 0 20 7 20 20 0 13 -7 20 -20 20
-13 0 -20 -7 -20 -20z"/>
<path d="M2860 8404 c-54 -43 -56 -44 -132 -44 -44 0 -80 -5 -83 -11 -4 -6 11
-37 34 -69 40 -56 41 -61 41 -138 0 -85 9 -103 39 -80 111 80 112 81 193 88
44 4 83 11 88 16 6 6 -11 33 -40 67 -49 57 -50 60 -50 122 0 70 -6 95 -24 94
-6 0 -36 -20 -66 -45z"/>
<path d="M7296 8441 c-4 -5 -5 -41 -4 -79 3 -67 2 -70 -37 -116 -71 -85 -71
-84 -40 -96 15 -6 42 -8 60 -4 52 9 90 -4 151 -52 32 -24 61 -44 65 -44 4 0 9
40 11 88 3 87 4 89 46 139 23 28 42 55 42 61 0 16 -27 22 -94 22 -56 0 -68 4
-117 38 -75 53 -77 53 -83 43z"/>
<path d="M5874 8351 c-34 -21 -64 -75 -64 -116 0 -72 62 -135 133 -135 80 0
137 58 137 138 0 103 -117 167 -206 113z m97 -81 c37 -20 17 -70 -28 -70 -32
0 -46 31 -27 58 17 25 27 27 55 12z"/>
<path d="M4570 8278 c0 -49 -6 -73 -25 -107 -14 -23 -25 -45 -25 -47 0 -2 26
-4 58 -4 52 0 62 -3 87 -30 31 -33 45 -38 45 -16 0 26 41 66 80 77 l40 12 -36
39 c-33 37 -34 41 -28 90 6 41 4 50 -7 45 -77 -31 -102 -32 -176 -1 -10 4 -13
-11 -13 -58z"/>
<path d="M6582 8145 c-12 -20 -35 -44 -52 -53 -16 -9 -30 -19 -30 -22 0 -4 16
-12 35 -19 23 -8 41 -24 53 -47 l18 -35 17 36 c11 24 29 41 53 51 39 16 38 26
-4 43 -16 7 -38 28 -49 47 l-20 36 -21 -37z"/>
<path d="M5351 8070 c-67 -51 -86 -55 -167 -40 -41 8 -69 9 -75 3 -6 -6 1 -36
17 -80 l26 -70 -31 -74 c-31 -73 -37 -99 -24 -99 3 0 35 5 70 11 35 6 74 9 86
5 13 -3 49 -28 81 -56 32 -28 61 -48 66 -45 4 3 11 22 15 42 17 100 25 113 92
151 35 20 63 41 63 47 0 5 -29 28 -63 50 -61 39 -62 41 -70 95 -13 84 -17 100
-25 100 -4 0 -32 -18 -61 -40z"/>
<path d="M6476 7795 c-209 -30 -413 -90 -625 -184 -207 -92 -453 -249 -642
-412 l-56 -48 -61 49 c-61 49 -212 160 -264 194 -25 17 -26 16 -24 -1 2 -10
-1 -31 -5 -47 -5 -16 -11 -48 -14 -70 -3 -23 -11 -57 -18 -76 -6 -19 -12 -37
-12 -40 -5 -18 -20 -47 -31 -60 -7 -8 -13 -19 -14 -25 0 -5 -9 -20 -20 -32
-11 -12 -31 -40 -46 -63 -23 -34 -29 -38 -42 -28 -13 12 -14 10 -2 -9 8 -12
17 -20 20 -18 3 2 6 -4 7 -13 1 -9 9 -37 19 -62 14 -34 19 -72 19 -155 0 -101
-3 -115 -30 -170 -36 -75 -123 -163 -195 -198 -114 -55 -258 -57 -373 -4 l-52
24 -44 -24 c-24 -13 -51 -23 -60 -23 -26 0 208 -79 282 -95 38 -8 116 -15 175
-15 231 0 306 -54 415 -298 97 -215 175 -284 268 -238 17 9 34 16 36 16 2 0
-8 -23 -23 -51 -36 -65 -78 -101 -151 -130 -51 -20 -73 -23 -186 -21 l-128 2
-15 -35 c-8 -19 -27 -99 -42 -177 l-28 -143 -54 -5 c-50 -5 -53 -7 -30 -17 55
-23 148 -52 205 -63 l61 -12 104 70 c188 125 336 171 571 179 144 5 361 -13
416 -34 14 -6 15 2 10 63 -15 159 -91 362 -149 398 -12 7 -36 4 -91 -13 -194
-61 -365 14 -620 273 -104 105 -166 189 -207 279 -52 115 -63 259 -26 348 23
56 92 137 136 159 42 22 103 26 144 10 57 -21 176 -159 176 -203 0 -34 -38
-17 -76 33 -85 112 -194 147 -269 88 -41 -32 -57 -75 -63 -169 -8 -146 44
-272 171 -414 114 -127 210 -155 332 -96 77 37 110 66 193 170 37 47 78 93 92
103 38 28 91 32 214 18 135 -15 243 -5 428 40 163 40 254 47 337 26 165 -42
284 -152 389 -361 56 -113 90 -230 109 -380 9 -71 17 -131 18 -133 1 -1 35 14
76 34 41 20 119 54 174 76 239 96 389 180 585 326 128 96 341 303 410 400 25
34 46 58 48 52 7 -21 -42 -143 -81 -203 -51 -76 -176 -207 -279 -294 -169
-140 -391 -271 -623 -366 -60 -24 -227 -97 -370 -162 -543 -245 -744 -281
-1206 -219 -259 35 -456 37 -583 6 -106 -27 -253 -94 -340 -156 -70 -50 -394
-356 -413 -389 -44 -79 33 -156 158 -157 80 0 125 19 269 115 148 99 234 141
319 157 57 11 64 10 109 -13 41 -21 63 -24 177 -27 123 -4 212 8 325 43 16 5
31 -22 48 -87 8 -28 7 -38 -1 -38 -8 0 -7 -3 1 -9 11 -7 10 -10 -3 -15 -9 -3
-22 -3 -28 0 -7 4 -5 0 3 -9 27 -28 283 -155 360 -178 56 -17 99 -23 170 -23
110 1 161 17 256 81 120 82 162 96 401 138 512 89 876 250 1140 501 58 55 65
67 106 179 86 231 138 450 158 668 17 185 7 493 -21 622 -89 419 -316 753
-675 994 -198 133 -404 216 -655 266 -117 24 -440 29 -574 10z m451 -435 l35
0 -22 -35 c-18 -29 -20 -40 -11 -65 5 -17 9 -30 8 -30 -1 0 -16 4 -34 9 -22 7
-39 5 -58 -5 -35 -18 -33 -19 -41 20 -3 19 -15 42 -25 52 -26 24 -24 31 11 39
20 4 36 17 46 38 l16 31 20 -27 c15 -20 28 -27 55 -27z m-902 -155 c132 -35
235 -120 294 -244 35 -74 36 -80 36 -191 0 -108 -2 -119 -32 -182 -58 -123
-172 -206 -317 -230 -239 -40 -481 140 -515 382 -18 134 18 248 110 345 109
115 268 160 424 120z m1711 -314 c-4 -5 2 -7 11 -5 10 3 27 -1 38 -9 17 -14
16 -14 -21 -11 l-41 3 5 -49 c2 -28 -1 -62 -7 -77 -6 -16 -12 -37 -14 -48 -1
-11 -7 -26 -11 -34 -7 -10 -5 -12 5 -6 11 6 12 5 2 -6 -8 -8 -13 -41 -13 -86
0 -40 -4 -73 -9 -73 -5 0 -14 -12 -20 -27 -6 -16 -24 -52 -40 -81 -16 -29 -31
-62 -34 -73 -3 -11 -6 -23 -7 -27 -1 -4 -6 -15 -12 -25 -18 -35 -17 -56 3 -62
11 -4 39 -22 64 -40 28 -22 45 -30 49 -22 2 7 5 2 5 -10 1 -22 -1 -21 -44 11
-55 42 -127 70 -225 86 -211 34 -306 99 -346 238 -19 66 -13 120 22 179 31 53
68 80 133 95 79 18 152 -2 207 -58 l44 -43 0 42 c0 86 37 162 99 204 27 18 48
23 98 23 36 0 62 -4 59 -9z m95 -48 c13 -16 12 -17 -3 -4 -10 7 -18 15 -18 17
0 8 8 3 21 -13z m66 -125 c-3 -8 -6 -5 -6 6 -1 11 2 17 5 13 3 -3 4 -12 1 -19z
m-8 -210 c-15 -37 -88 -158 -96 -158 -3 0 5 15 17 33 12 17 36 62 53 98 33 68
50 86 26 27z m-1644 -1598 l90 -1 -103 -34 c-56 -19 -108 -32 -116 -29 -14 5
-36 46 -36 66 0 7 13 8 38 4 20 -3 78 -6 127 -6z"/>
<path d="M7853 7764 c-3 -8 -1 -20 5 -26 15 -15 43 8 35 28 -7 19 -32 18 -40
-2z"/>
<path d="M2150 7700 c-24 -24 -25 -43 -4 -64 21 -21 47 -20 67 2 23 25 21 59
-2 72 -28 14 -38 13 -61 -10z"/>
<path d="M8220 7689 c-8 -18 -27 -37 -47 -47 -42 -20 -42 -28 1 -46 21 -9 42
-28 52 -48 l17 -33 14 33 c7 18 29 42 48 53 19 12 35 23 35 25 0 2 -15 10 -33
18 -21 8 -38 25 -46 45 -17 39 -25 39 -41 0z"/>
<path d="M1820 7145 c0 -8 -13 -24 -30 -37 -37 -27 -37 -34 -5 -42 14 -4 31
-18 37 -31 12 -27 28 -33 28 -11 0 8 15 27 33 42 24 20 28 28 17 32 -8 3 -28
18 -43 34 -33 32 -37 34 -37 13z"/>
<path d="M8456 7124 c-23 -23 -20 -51 9 -70 23 -15 27 -15 50 0 27 18 33 54
13 74 -17 17 -54 15 -72 -4z"/>
<path d="M8636 6434 c-30 -30 -13 -74 29 -74 44 0 63 60 26 80 -27 14 -37 13
-55 -6z"/>
<path d="M3843 6303 c9 -2 25 -2 35 0 9 3 1 5 -18 5 -19 0 -27 -2 -17 -5z"/>
<path d="M3604 5357 c-8 -177 -17 -297 -24 -317 -9 -23 -15 -83 -26 -225 -2
-33 -6 -66 -9 -74 -7 -17 -18 -126 -28 -273 -2 -23 -6 -26 -27 -22 -14 2 13
-9 60 -26 160 -57 268 -118 346 -195 39 -38 83 -94 99 -123 48 -89 114 -114
228 -88 84 20 167 20 211 2 40 -17 100 -76 116 -116 12 -29 14 -29 80 -29 73
1 98 -8 143 -50 42 -38 57 -73 57 -131 l0 -50 39 0 c55 0 90 -15 134 -58 62
-61 84 -172 51 -268 -19 -56 -17 -59 94 -135 134 -93 284 -129 407 -98 86 22
78 30 -200 216 -83 55 -156 107 -163 116 -17 20 -12 61 8 65 17 3 96 -43 335
-198 176 -114 233 -140 300 -140 105 0 177 71 149 145 -6 15 -63 54 -391 268
-110 72 -133 90 -133 111 0 57 47 41 250 -84 237 -146 349 -208 401 -220 60
-15 129 -6 163 21 48 37 57 119 18 162 -9 10 -89 61 -177 114 -459 273 -425
250 -425 288 0 13 7 31 16 39 14 15 22 13 92 -26 43 -23 156 -89 252 -146 239
-143 301 -172 367 -172 44 0 58 5 85 29 29 26 33 35 32 79 -1 73 -38 127 -152
224 -157 132 -246 186 -532 322 -63 30 -161 80 -218 111 -56 30 -101 51 -100
45 2 -6 -17 -18 -42 -26 -25 -8 -54 -19 -65 -24 -47 -20 -55 -18 -102 19 -26
21 -54 45 -61 53 -10 12 -21 14 -50 7 -53 -12 -171 -11 -152 1 8 5 11 10 5 10
-5 0 -68 -36 -140 -80 -158 -98 -234 -125 -338 -118 -164 11 -297 120 -297
244 0 69 54 151 178 271 53 51 94 94 91 96 -2 2 -60 27 -129 57 -139 59 -430
202 -530 260 -36 20 -117 65 -180 98 -108 57 -115 60 -116 39z"/>
<path d="M8044 4911 c-158 -154 -363 -277 -619 -374 -143 -54 -258 -86 -459
-127 -180 -37 -224 -54 -307 -112 -81 -57 -153 -86 -253 -101 l-79 -12 79 -69
c43 -38 106 -96 139 -128 34 -33 76 -62 95 -68 19 -5 95 -15 170 -21 103 -8
140 -15 155 -28 35 -31 41 -32 151 -15 114 17 225 52 284 89 127 80 518 606
666 896 44 86 84 169 81 169 -1 -1 -48 -45 -103 -99z m-754 -706 c0 -22 -38
-87 -70 -120 -21 -22 -49 -57 -63 -77 l-24 -37 1 82 1 82 70 37 c69 37 85 43
85 33z"/>
<path d="M6647 3862 c4 -9 8 -56 8 -103 0 -77 -3 -90 -28 -127 -29 -44 -110
-98 -163 -108 -29 -5 -32 -10 -37 -54 -15 -127 -100 -204 -240 -219 -44 -5
-74 -13 -79 -22 -5 -8 -22 -37 -38 -65 -54 -97 -171 -146 -298 -127 -56 8 -64
7 -80 -10 -27 -30 -103 -64 -170 -77 -135 -24 -300 24 -451 131 -30 22 -64 39
-77 39 -12 0 -56 -16 -97 -36 -119 -56 -203 -48 -285 30 -19 17 -42 47 -53 67
-16 32 -26 39 -71 49 -43 11 -62 23 -105 68 -29 29 -58 52 -65 49 -7 -3 -4 -6
7 -6 11 -1 16 -5 10 -9 -18 -13 -45 -76 -47 -110 -1 -21 -10 -37 -20 -43 -10
-6 -16 -14 -13 -19 3 -5 -8 -22 -26 -37 -17 -16 -40 -38 -52 -50 -11 -13 -25
-23 -30 -23 -5 0 -18 -9 -27 -20 -10 -12 -28 -23 -40 -25 -12 -2 -30 -7 -40
-10 -10 -3 -21 -1 -25 5 -3 5 -16 15 -28 21 -63 32 96 -83 329 -238 242 -162
453 -288 660 -395 l171 -88 209 104 c676 338 1304 782 1812 1282 138 136 145
145 112 140 -19 -4 -105 -9 -190 -12 -158 -6 -219 2 -418 56 -30 8 -33 7 -25
-8z m-2438 -876 c18 -10 20 -14 9 -19 -29 -11 -128 -19 -128 -11 1 39 71 57
119 30z m533 -73 c30 -28 35 -52 18 -84 -15 -28 -27 -24 -55 19 -21 32 -24 44
-16 65 13 34 18 34 53 0z m422 -113 c20 -22 36 -44 36 -48 0 -4 -17 -15 -37
-25 -41 -18 -54 -13 -79 34 -17 34 -18 66 -1 72 29 12 47 5 81 -33z"/>
<path d="M4919 3453 c23 -47 8 -70 -82 -118 -23 -12 -58 -31 -79 -43 -20 -11
-39 -18 -42 -15 -3 4 -7 -2 -8 -13 0 -10 -4 1 -8 26 l-7 45 -1 -47 c-3 -92 79
-136 157 -85 74 49 119 198 75 253 -15 18 -15 18 -5 -3z"/>
<path d="M4729 3403 c-13 -16 -12 -17 4 -4 9 7 17 15 17 17 0 8 -8 3 -21 -13z"/>
</g>
</svg>
